<?xml version="1.0" encoding="utf-8"?>
<!-- Generator: Adobe Illustrator 26.3.1, SVG Export Plug-In . SVG Version: 6.00 Build 0)  -->
<svg version="1.1" id="Camada_1" xmlns="http://www.w3.org/2000/svg" xmlns:xlink="http://www.w3.org/1999/xlink" x="0px" y="0px"
	 viewBox="0 0 288 288" style="enable-background:new 0 0 288 288;" xml:space="preserve">
<g>
	<g>
		<path d="M204.93,78.9c-0.39-8.04-4.53-15.36-10.42-20.71c-6.64-6.02-15.23-9.28-23.92-11c-9.54-1.88-19.7-2.72-29.39-1.78
			c-9.66,0.94-18.95,3.89-27.94,7.44c-4.46,1.76-8.88,3.64-13.27,5.56c-4.23,1.85-8.45,3.84-12.23,6.51
			c-7.39,5.21-12.44,12.88-15.92,21.12c-6.96,16.47-7.45,35.65-1.17,52.41c2.98,7.95,7.45,15.54,14.34,20.71
			c3.69,2.77,7.9,4.68,12.14,6.44c4.52,1.88,9.12,3.57,13.78,5.07c9.33,3.01,18.9,5.27,28.59,6.75c8.91,1.36,18,2.29,27.01,1.75
			c8.22-0.49,16.54-2.23,23.71-6.42c6.8-3.97,13.11-10.59,13.63-18.84c0.51-8.06-5.77-13.55-12.57-16.48
			c-3.76-1.62-7.72-2.71-11.66-3.81c-4.71-1.31-9.46-2.66-14.31-3.32c-4.5-0.61-9.16-0.53-13.4,1.24c-3.59,1.49-6.53,4.05-8.83,7.15
			c-5.35,7.21-6.28,16.41-6.06,25.11c0.13,5.09,0.53,10.16,0.65,15.25c0.13,5.22,0.1,10.45-0.05,15.67
			c-0.3,10.45-1.07,20.89-2,31.31c-0.46,5.13-0.95,10.25-1.45,15.38c-0.19,1.92,2.82,1.91,3,0c1.9-19.65,3.81-39.35,3.57-59.11
			c-0.06-4.9-0.32-9.78-0.56-14.67c-0.23-4.75-0.38-9.58,0.33-14.3c1.09-7.23,4.52-14.83,11.26-18.4c7.9-4.19,17.67-0.96,25.68,1.23
			c6.86,1.87,15.12,3.57,20.2,8.97c5.49,5.84,3.08,14.01-1.78,19.4c-5.25,5.81-12.91,9-20.45,10.54c-7.78,1.58-15.84,1.5-23.72,0.83
			c-9.23-0.79-18.4-2.32-27.4-4.53c-8.99-2.21-17.81-5.09-26.35-8.64c-4.05-1.68-8.12-3.58-11.61-6.28
			c-3.15-2.44-5.77-5.53-7.91-8.88c-9-14.15-11.14-32.59-7.53-48.78c1.82-8.19,5.1-16.23,10.07-23.02c2.53-3.46,5.63-6.48,9.2-8.86
			c3.61-2.41,7.56-4.25,11.53-5.98c8.39-3.65,16.87-7.27,25.68-9.77c9.28-2.63,18.62-3.46,28.23-2.81
			c16.08,1.08,34.96,4.77,43.36,20.25c1.73,3.18,2.78,6.69,2.95,10.31C202.02,80.82,205.02,80.83,204.93,78.9L204.93,78.9z"/>
	</g>
</g>
<g>
	<g>
		<path d="M158.32,178.18c7.07,17.98,17.6,34.21,28.3,50.2c3.05,4.56,6.12,9.11,9.13,13.69c1.06,1.61,3.66,0.11,2.59-1.51
			c-10.47-15.92-21.65-31.45-30.4-48.42c-2.48-4.81-4.75-9.72-6.73-14.75C160.52,175.61,157.61,176.38,158.32,178.18L158.32,178.18z
			"/>
	</g>
</g>
</svg>
